<?xml version="1.0" encoding="UTF-8"?>
<svg id="Layer_2" data-name="Layer 2" xmlns="http://www.w3.org/2000/svg" viewBox="0 0 161.1 99.7">
  <defs>
    <style>
      .cls-1 {
        fill: #e4dedeff;
      }
    </style>
  </defs>
  <path class="cls-1" d="M161.1,43.11v11.97c-.59.53-.57,1.41-.92,2.08-4.24,8.2-16.54,5.67-17.06-3.52h-17.25v27.77h17.25c1.23-10.53,15.64-10.97,17.97-.72v11.49c-1.24,3.82-3.73,6.47-7.81,7.16-11.99-.72-25.29,1.05-37.13.03-4.17-.36-7.72-3.84-8.03-8.02v-48.14c.8-4.34,4.14-7.2,8.51-7.55,11.62-.92,24.44.7,36.19.01,4.2.41,7.17,3.48,8.27,7.42Z"/>
  <path class="cls-1" d="M94.96,25.15h-17.97v-7.06l-.36-.36H30.26c-.1.42.17.48.36.72.82,1.06,2.58,2.77,3.59,3.83,6.46,6.78,14.51,13.98,20.38,21.06,3.3,3.98,3.12,8.63-.13,12.57-7.05,8.54-16.51,16.35-23.84,24.79l-.36.72h46.73v-6.46h17.97v15.68c0,4.28-3.83,8.32-8.03,8.74H8.08c-7.22-.82-10.49-8.92-6.06-14.68l33.49-35.2L1.45,13.82C-2.07,8.35,1.13.92,7.6,0h79.81c3.89.43,7.55,4.63,7.55,8.51v16.64Z"/>
</svg>