<?xml version="1.0" encoding="UTF-8"?>
<svg id="Layer_2" data-name="Layer 2" xmlns="http://www.w3.org/2000/svg" viewBox="0 0 166.86 99.38">
  <defs>
    <style>
      .cls-1 {
        fill: #e4dedeff;
      }
    </style>
  </defs>
  <path class="cls-1" d="M95.07,25.15h-17.99v-7.06l-.36-.36H30.29l.36.72c7.29,8.57,17.07,16.39,24.11,25.03,3.14,3.86,3.01,8.88-.35,12.57l-24.35,25.38h47.02v-6.46h17.99v15.68c0,4.28-3.83,8.32-8.04,8.74H8.09c-7.23-.82-10.5-8.92-6.07-14.68l33.53-35.2L1.45,13.82C-2.07,8.35,1.13.92,7.61,0h79.9c3.9.43,7.56,4.63,7.56,8.51v16.64Z"/>
  <path class="cls-1" d="M120.74,72.32c.37.41,8.37-5.36,9.35-5.87,7.62-3.96,12.16,2.86,18.48,5.87v-19.03c0-1.75,1.76-4.84,3.12-5.99,5.55-4.71,14.01-1.4,14.89,5.74-.72,11.98.94,25.04,0,36.89-.46,5.77-6.33,9.46-11.82,7.71-6.93-3.74-13.23-8.55-19.98-12.61l-18.67,12.01c-5.74,2.92-12.49-.55-13.29-6.93v-36.98c.89-8.23,11.76-10.96,16.45-4.1.36.52,1.48,3.05,1.48,3.55v19.75Z"/>
</svg>